PathFileType	4	(X/Y/Z)	/Users/itak/Documents/Research/Walk-IL/dataset/trc/00440_00167.trc
DataRate	CameraRate	NumFrames	NumMarkers	Units	OrigDataRate	OrigDataStartFrame	OrigNumFrames
100.000000	100.000000	4	53	mm	100.000000	245	490
Frame#	Time	RPSI			LPSI			L3			STRN			T10			C7			CLAV			RBAK			LBAK			LSHO			LUPA			LAEL			LAOL			LWTS			LWPS			LFRA			LIFD			LHPS			LHTS			RSHO			RUPA			RAEL			RAOL			RWTS			RWPS			RFRA			RIFD			RHTS			RHPS			RBHD			LFHD			RFHD			LBHD			LHIP			RHIP			RASI			LASI			LKNE			LTHI			LANK			LTIP			LTOE			LMT1			LMT5			LHEE			RKNE			RTHI			RANK			RTIP			RTOE			RMT1			RMT5			RHEE			
		X1	Y1	Z1	X2	Y2	Z2	X3	Y3	Z3	X4	Y4	Z4	X5	Y5	Z5	X6	Y6	Z6	X7	Y7	Z7	X8	Y8	Z8	X9	Y9	Z9	X10	Y10	Z10	X11	Y11	Z11	X12	Y12	Z12	X13	Y13	Z13	X14	Y14	Z14	X15	Y15	Z15	X16	Y16	Z16	X17	Y17	Z17	X18	Y18	Z18	X19	Y19	Z19	X20	Y20	Z20	X21	Y21	Z21	X22	Y22	Z22	X23	Y23	Z23	X24	Y24	Z24	X25	Y25	Z25	X26	Y26	Z26	X27	Y27	Z27	X28	Y28	Z28	X29	Y29	Z29	X30	Y30	Z30	X31	Y31	Z31	X32	Y32	Z32	X33	Y33	Z33	X34	Y34	Z34	X35	Y35	Z35	X36	Y36	Z36	X37	Y37	Z37	X38	Y38	Z38	X39	Y39	Z39	X40	Y40	Z40	X41	Y41	Z41	X42	Y42	Z42	X43	Y43	Z43	X44	Y44	Z44	X45	Y45	Z45	X46	Y46	Z46	X47	Y47	Z47	X48	Y48	Z48	X49	Y49	Z49	X50	Y50	Z50	X51	Y51	Z51	X52	Y52	Z52	X53	Y53	Z53	

246	2.45	-152.1235656738281	931.8478393554688	121.7687911987305	-51.9078254699707	930.635498046875	19.38237380981445	-112.8141708374023	1026.335327148438	101.888313293457	119.1327743530273	1217.975463867188	256.357421875	-127.5422821044922	1149.883544921875	99.9334716796875	-78.69045257568359	1415.988037109375	152.2345123291016	90.67300415039062	1331.775146484375	230.7671966552734	-180.8027038574219	1298.294189453125	200.8650665283203	-57.30276107788086	1368.977416992188	50.9185905456543	71.99306488037109	1388.821655273438	31.16280364990234	98.58004760742188	1271.111328125	-64.99881744384766	105.3139953613281	1055.510009765625	-97.82032012939453	4.84861946105957	1053.45556640625	-73.72556304931641	120.218376159668	836.9109497070312	-42.39473342895508	106.4501495361328	834.6995239257812	-114.8188095092773	114.2570571899414	965.68310546875	-105.2231903076172	88.38375854492188	673.0489501953125	-65.04539489746094	92.92263793945312	754.68701171875	-119.7166061401367	115.2018127441406	747.0274047851562	-52.65937042236328	-95.50794982910156	1384.046752929688	326.7908020019531	-149.6473846435547	1322.574951171875	382.7935180664062	-193.0941314697266	1038.545288085938	425.0458068847656	-219.104736328125	1028.41552734375	362.4461364746094	-112.9447784423828	822.1504516601562	428.9703979492188	-201.1590423583984	819.8599853515625	442.3408203125	-202.8843078613281	980.7291259765625	432.4742126464844	-144.5348358154297	665.2244262695312	426.733642578125	-124.4532241821289	721.56201171875	440.6344299316406	-200.0300903320312	731.7669677734375	443.2286071777344	-58.79498672485352	1612.798461914062	245.4860534667969	138.4945526123047	1634.133911132812	188.2270660400391	66.32989501953125	1641.365112304688	296.5614624023438	26.235107421875	1606.608642578125	88.49404144287109	139.0102691650391	835.1167602539062	44.12996673583984	-177.4783935546875	822.93798828125	297.188720703125	-55.13992691040039	857.2852783203125	330.8814392089844	134.0184478759766	875.0889892578125	164.2736968994141	229.2964324951172	439.3479919433594	192.1013946533203	224.7266082763672	591.9097290039062	148.4482727050781	158.5543670654297	31.99184799194336	144.2400207519531	226.3874664306641	279.1947326660156	182.0531158447266	279.8459167480469	38.4950065612793	345.9944763183594	207.4462280273438	43.32975006103516	317.8867797851562	279.7621154785156	42.43621826171875	230.5438537597656	86.91265106201172	34.48995971679688	145.7881317138672	-216.7050323486328	447.6509094238281	278.1985473632812	-167.8747711181641	689.0261840820312	327.1369323730469	-498.9859924316406	185.3941497802734	62.73743438720703	-311.253173828125	346.3606567382812	228.1416625976562	-373.8770141601562	35.31690979003906	61.96171188354492	-380.9937133789062	79.13893127441406	24.27529525756836	-460.1519470214844	66.53232574462891	94.99793243408203	-498.059814453125	249.7326049804688	14.61505603790283	
247	2.46	-142.7304077148438	932.7591552734375	125.5246200561523	-41.99467849731445	932.8973388671875	23.49087142944336	-102.1638946533203	1028.517822265625	105.5693359375	128.4567260742188	1219.6123046875	261.6737365722656	-116.7733917236328	1152.226806640625	103.3473358154297	-68.07246398925781	1418.18603515625	156.2789306640625	100.5229339599609	1333.55615234375	236.1244201660156	-170.5607452392578	1300.673461914062	204.0731353759766	-45.84578704833984	1371.226318359375	54.9884147644043	83.60729217529297	1391.093627929688	36.59230804443359	112.1037673950195	1273.56689453125	-59.32175064086914	121.2509307861328	1057.878784179688	-91.74266815185547	20.41730499267578	1054.669799804688	-69.40165710449219	138.7806701660156	840.2137451171875	-34.09290313720703	125.9875030517578	837.0026245117188	-106.6259536743164	131.6037139892578	968.1102294921875	-98.21586608886719	110.3206176757812	675.55419921875	-55.41262817382812	114.0333023071289	756.7193603515625	-110.8750534057617	135.6502075195312	750.1751708984375	-43.45710754394531	-85.99490356445312	1386.25927734375	330.8589782714844	-140.5401153564453	1324.867553710938	386.5314331054688	-185.2565612792969	1040.97314453125	427.6087036132812	-211.5243377685547	1031.641479492188	365.0133972167969	-108.583137512207	822.7645263671875	429.52685546875	-196.5083923339844	822.1919555664062	443.4176940917969	-195.7620544433594	983.281494140625	434.6690979003906	-143.7173614501953	666.552490234375	424.4467163085938	-122.0970001220703	722.1246948242188	439.2977905273438	-197.4180450439453	734.0889892578125	442.696533203125	-48.26880645751953	1614.898803710938	250.0094604492188	149.1927185058594	1635.903564453125	193.1203155517578	76.78966522216797	1643.201171875	301.3619689941406	37.07736206054688	1608.616333007812	93.10870361328125	148.1097869873047	836.2705688476562	47.92780303955078	-166.8519134521484	823.2603759765625	301.0818786621094	-45.35877227783203	858.9722290039062	335.2290954589844	143.8491668701172	876.1731567382812	168.3279418945312	233.2758331298828	438.2807922363281	193.0495758056641	230.5077209472656	590.8530883789062	150.1492004394531	158.5268249511719	31.94474029541016	144.2143707275391	228.6404113769531	278.2862548828125	182.1805725097656	279.7590026855469	38.62096405029297	346.0079956054688	207.4066009521484	43.39416122436523	317.8396301269531	279.7801513671875	42.42179870605469	230.4977569580078	86.85377502441406	34.47639083862305	145.7734680175781	-198.9908294677734	447.4226684570312	291.278564453125	-155.1721038818359	689.9920654296875	334.0592041015625	-483.7013549804688	195.3010711669922	71.41765594482422	-293.9051208496094	347.4324951171875	240.26318359375	-366.3231811523438	35.88321304321289	69.77547454833984	-370.2020874023438	83.21076202392578	32.22152709960938	-450.684814453125	73.08463287353516	101.4668579101562	-480.4064025878906	259.8340759277344	23.84651184082031	
248	2.47	-133.6380767822266	933.8049926757812	129.4549560546875	-32.62867736816406	935.087158203125	27.62622261047363	-91.84109497070312	1030.680297851562	109.3340911865234	137.4735870361328	1221.20361328125	266.9852600097656	-106.2732925415039	1154.5693359375	106.7201461791992	-57.66048812866211	1420.385009765625	160.2970886230469	110.0738906860352	1335.291748046875	241.4951324462891	-160.5704956054688	1303.033081054688	207.2071990966797	-34.57120132446289	1373.499389648438	59.02534866333008	95.039794921875	1393.296508789062	42.07086563110352	125.51513671875	1275.994995117188	-53.58461380004883	137.2606201171875	1060.302124023438	-85.68447875976562	36.03479766845703	1055.8203125	-65.22154235839844	157.5429534912109	843.7210693359375	-25.69623756408691	145.8220977783203	839.4603881835938	-98.32281494140625	149.0871276855469	970.6272583007812	-91.17241668701172	132.9181823730469	678.2997436523438	-45.52388763427734	135.6443634033203	758.9216918945312	-101.8629455566406	156.5258636474609	753.5906982421875	-34.07567977905273	-76.80325317382812	1388.4345703125	334.877197265625	-131.7955474853516	1327.127075195312	390.1799621582031	-177.7115631103516	1043.349731445312	430.2677612304688	-204.2437286376953	1034.693359375	367.6970825195312	-103.8608474731445	823.6234130859375	430.138916015625	-191.3736419677734	824.5184326171875	444.8130187988281	-188.7413635253906	985.7642211914062	437.0107727050781	-141.9760894775391	668.1512451171875	422.4323425292969	-118.9593353271484	722.9916381835938	438.1492004394531	-194.0105743408203	736.459228515625	442.5629577636719	-37.89584350585938	1616.999877929688	254.5952911376953	159.7318420410156	1637.639038085938	198.0659332275391	87.08750915527344	1645.005493164062	306.2248840332031	47.73541641235352	1610.6201171875	97.79715728759766	156.7357330322266	837.4535522460938	51.49551773071289	-156.3268737792969	823.8088989257812	305.1908569335938	-35.64554214477539	860.762939453125	339.6160278320312	153.3863830566406	877.31005859375	172.1780242919922	237.0015716552734	437.3186645507812	193.7595977783203	236.02734375	590.0136108398438	151.6998291015625	158.5165863037109	31.88049507141113	144.1641235351562	230.7713012695312	277.4558715820312	182.2404937744141	279.7162780761719	38.71269226074219	345.9820251464844	207.4002838134766	43.46085739135742	317.7632141113281	279.8361511230469	42.38523483276367	230.4189758300781	86.80281066894531	34.46847915649414	145.7457733154297	-181.0548248291016	447.6187744140625	304.3511657714844	-142.4533538818359	691.212646484375	341.2035217285156	-467.3145446777344	204.4197692871094	80.29912567138672	-276.0611877441406	348.7191162109375	252.3893737792969	-356.45751953125	37.46392440795898	79.13349914550781	-357.4119262695312	87.52299499511719	41.37729644775391	-439.2699890136719	79.87648010253906	109.1391372680664	-462.0137634277344	268.803955078125	32.8762321472168	
249	2.48	-124.8054580688477	934.986572265625	133.6101226806641	-23.7877197265625	937.17724609375	31.80823135375977	-81.88013458251953	1032.820556640625	113.2173538208008	146.2321319580078	1222.780517578125	272.2664184570312	-96.04826354980469	1156.89453125	110.108528137207	-47.45950317382812	1422.576904296875	164.2982788085938	119.3411560058594	1337.000244140625	246.8544006347656	-150.8313598632812	1305.364501953125	210.3008880615234	-23.49108505249023	1375.782836914062	63.02923202514648	106.2695388793945	1395.427368164062	47.57746887207031	138.7968139648438	1278.385375976562	-47.79018783569336	153.3224792480469	1062.773193359375	-79.61403656005859	51.70888900756836	1056.921997070312	-61.16115951538086	176.4352416992188	847.42333984375	-17.20622825622559	165.8810577392578	842.0860595703125	-89.90985870361328	166.674072265625	973.236083984375	-84.07466888427734	156.1180725097656	681.3182373046875	-35.40573883056641	157.6865081787109	761.3309936523438	-92.68962097167969	177.7489013671875	757.2872314453125	-24.54023551940918	-67.91323852539062	1390.56396484375	338.8510437011719	-123.4006729125977	1329.350463867188	393.7416076660156	-170.5027618408203	1045.661499023438	432.9872131347656	-197.2497711181641	1037.552978515625	370.4290466308594	-98.75115966796875	824.7340698242188	430.8687438964844	-185.8013916015625	826.7938232421875	446.4765625	-181.8738403320312	988.1549682617188	439.4508666992188	-139.2272491455078	669.9618530273438	420.8122253417969	-115.0166625976562	724.1450805664062	437.2947692871094	-189.8064117431641	738.8051147460938	442.8292236328125	-27.67582511901855	1619.09521484375	259.2442321777344	170.1087493896484	1639.34521484375	203.0718231201172	97.22536468505859	1646.779052734375	311.1487731933594	58.21521377563477	1612.62646484375	102.5651931762695	164.9550018310547	838.6624755859375	54.85588073730469	-145.8595733642578	824.6265258789062	309.6075439453125	-25.91191101074219	862.6964111328125	344.0479431152344	162.6740875244141	878.5135498046875	175.8136596679688	240.5206756591797	436.4607849121094	194.3202514648438	241.3430023193359	589.3831787109375	153.1686553955078	158.524169921875	31.80106163024902	144.0882720947266	232.8080139160156	276.6986999511719	182.3216552734375	279.7014465332031	38.77628707885742	345.9219665527344	207.424072265625	43.53324127197266	317.6596069335938	279.93359375	42.3380126953125	230.3110198974609	86.75978088378906	34.46328735351562	145.7015686035156	-162.9617919921875	448.287353515625	317.3606262207031	-129.6914978027344	692.7017822265625	348.5710754394531	-449.923583984375	212.4936065673828	89.34080505371094	-257.8363952636719	350.3089294433594	264.4359436035156	-343.9580688476562	39.96923446655273	89.94398498535156	-342.5332641601562	91.95466613769531	51.70881271362305	-425.6898193359375	86.59849548339844	118.1051864624023	-443.0994262695312	276.4537353515625	41.70380020141602	
